<?xml version="1.0" encoding="utf-8" standalone="no"?>
<!DOCTYPE svg PUBLIC "-//W3C//DTD SVG 1.1//EN"
  "http://www.w3.org/Graphics/SVG/1.1/DTD/svg11.dtd">
<svg xmlns:xlink="http://www.w3.org/1999/xlink" width="1440pt" height="720pt" viewBox="0 0 1440 720" xmlns="http://www.w3.org/2000/svg" version="1.1">
 <metadata>
  <rdf:RDF xmlns:dc="http://purl.org/dc/elements/1.1/" xmlns:cc="http://creativecommons.org/ns#" xmlns:rdf="http://www.w3.org/1999/02/22-rdf-syntax-ns#">
   <cc:Work>
    <dc:type rdf:resource="http://purl.org/dc/dcmitype/StillImage"/>
    <dc:date>2024-07-02T16:44:25.698627</dc:date>
    <dc:format>image/svg+xml</dc:format>
    <dc:creator>
     <cc:Agent>
      <dc:title>Matplotlib v3.8.0, https://matplotlib.org/</dc:title>
     </cc:Agent>
    </dc:creator>
   </cc:Work>
  </rdf:RDF>
 </metadata>
 <defs>
  <style type="text/css">*{stroke-linejoin: round; stroke-linecap: butt}</style>
 </defs>
 <g id="figure_1">
  <g id="patch_1">
   <path d="M 0 720 
L 1440 720 
L 1440 0 
L 0 0 
z
" style="fill: #ffffff"/>
  </g>
  <g id="axes_1">
   <g id="patch_2">
    <path d="M 180 640.8 
L 1296 640.8 
L 1296 86.4 
L 180 86.4 
z
" style="fill: #ffffff"/>
   </g>
   <g id="patch_3">
    <path d="M 236.916 503.403519 
L 346.284 503.403519 
L 346.284 411.951906 
L 236.916 411.951906 
L 236.916 503.403519 
z
" clip-path="url(#peaceaa6df4)" style="fill: #7e1212; stroke: #2b2b2b; stroke-width: 1.2; stroke-linejoin: miter"/>
   </g>
   <g id="patch_4">
    <path d="M 348.516 518.843402 
L 457.884 518.843402 
L 457.884 372.652786 
L 348.516 372.652786 
L 348.516 518.843402 
z
" clip-path="url(#peaceaa6df4)" style="fill: #df3120; stroke: #2b2b2b; stroke-width: 1.2; stroke-linejoin: miter"/>
   </g>
   <g id="patch_5">
    <path d="M 460.116 501.212903 
L 569.484 501.212903 
L 569.484 392.896188 
L 460.116 392.896188 
L 460.116 501.212903 
z
" clip-path="url(#peaceaa6df4)" style="fill: #df9620; stroke: #2b2b2b; stroke-width: 1.2; stroke-linejoin: miter"/>
   </g>
   <g id="patch_6">
    <path d="M 571.716 488.227566 
L 681.084 488.227566 
L 681.084 367.717302 
L 571.716 367.717302 
L 571.716 488.227566 
z
" clip-path="url(#peaceaa6df4)" style="fill: #e6e64f; stroke: #2b2b2b; stroke-width: 1.2; stroke-linejoin: miter"/>
   </g>
   <g id="patch_7">
    <path d="M 794.916 519.608798 
L 904.284 519.608798 
L 904.284 450.855132 
L 794.916 450.855132 
L 794.916 519.608798 
z
" clip-path="url(#peaceaa6df4)" style="fill: #7e1212; stroke: #2b2b2b; stroke-width: 1.2; stroke-linejoin: miter"/>
   </g>
   <g id="patch_8">
    <path d="M 906.516 528.18651 
L 1015.884 528.18651 
L 1015.884 476.245161 
L 906.516 476.245161 
L 906.516 528.18651 
z
" clip-path="url(#peaceaa6df4)" style="fill: #df3120; stroke: #2b2b2b; stroke-width: 1.2; stroke-linejoin: miter"/>
   </g>
   <g id="patch_9">
    <path d="M 1018.116 499.682111 
L 1127.484 499.682111 
L 1127.484 378.142522 
L 1018.116 378.142522 
L 1018.116 499.682111 
z
" clip-path="url(#peaceaa6df4)" style="fill: #df9620; stroke: #2b2b2b; stroke-width: 1.2; stroke-linejoin: miter"/>
   </g>
   <g id="patch_10">
    <path d="M 1129.716 487.805279 
L 1239.084 487.805279 
L 1239.084 385.16305 
L 1129.716 385.16305 
L 1129.716 487.805279 
z
" clip-path="url(#peaceaa6df4)" style="fill: #e6e64f; stroke: #2b2b2b; stroke-width: 1.2; stroke-linejoin: miter"/>
   </g>
   <g id="patch_11">
    <path d="M 459 648.010557 
L 459 648.010557 
L 459 648.010557 
L 459 648.010557 
z
" clip-path="url(#peaceaa6df4)" style="fill: #7e1212; stroke: #2b2b2b; stroke-width: 0.6; stroke-linejoin: miter"/>
   </g>
   <g id="patch_12">
    <path d="M 459 648.010557 
L 459 648.010557 
L 459 648.010557 
L 459 648.010557 
z
" clip-path="url(#peaceaa6df4)" style="fill: #df3120; stroke: #2b2b2b; stroke-width: 0.6; stroke-linejoin: miter"/>
   </g>
   <g id="patch_13">
    <path d="M 459 648.010557 
L 459 648.010557 
L 459 648.010557 
L 459 648.010557 
z
" clip-path="url(#peaceaa6df4)" style="fill: #df9620; stroke: #2b2b2b; stroke-width: 0.6; stroke-linejoin: miter"/>
   </g>
   <g id="patch_14">
    <path d="M 459 648.010557 
L 459 648.010557 
L 459 648.010557 
L 459 648.010557 
z
" clip-path="url(#peaceaa6df4)" style="fill: #e6e64f; stroke: #2b2b2b; stroke-width: 0.6; stroke-linejoin: miter"/>
   </g>
   <g id="matplotlib.axis_1">
    <g id="xtick_1">
     <g id="line2d_1">
      <path d="M 459 640.8 
L 459 86.4 
" clip-path="url(#peaceaa6df4)" style="fill: none; stroke: #b0b0b0; stroke-width: 0.8; stroke-linecap: square"/>
     </g>
     <g id="line2d_2">
      <defs>
       <path id="m2a201b4d12" d="M 0 0 
L 0 4.8 
" style="stroke: #000000"/>
      </defs>
      <g>
       <use xlink:href="#m2a201b4d12" x="459" y="640.8" style="stroke: #000000"/>
      </g>
     </g>
     <g id="text_1">
      <!-- Male -->
      <g transform="translate(448.5775 655.786625) scale(0.088 -0.088)">
       <defs>
        <path id="DejaVuSans-4d" d="M 628 4666 
L 1569 4666 
L 2759 1491 
L 3956 4666 
L 4897 4666 
L 4897 0 
L 4281 0 
L 4281 4097 
L 3078 897 
L 2444 897 
L 1241 4097 
L 1241 0 
L 628 0 
L 628 4666 
z
" transform="scale(0.015625)"/>
        <path id="DejaVuSans-61" d="M 2194 1759 
Q 1497 1759 1228 1600 
Q 959 1441 959 1056 
Q 959 750 1161 570 
Q 1363 391 1709 391 
Q 2188 391 2477 730 
Q 2766 1069 2766 1631 
L 2766 1759 
L 2194 1759 
z
M 3341 1997 
L 3341 0 
L 2766 0 
L 2766 531 
Q 2569 213 2275 61 
Q 1981 -91 1556 -91 
Q 1019 -91 701 211 
Q 384 513 384 1019 
Q 384 1609 779 1909 
Q 1175 2209 1959 2209 
L 2766 2209 
L 2766 2266 
Q 2766 2663 2505 2880 
Q 2244 3097 1772 3097 
Q 1472 3097 1187 3025 
Q 903 2953 641 2809 
L 641 3341 
Q 956 3463 1253 3523 
Q 1550 3584 1831 3584 
Q 2591 3584 2966 3190 
Q 3341 2797 3341 1997 
z
" transform="scale(0.015625)"/>
        <path id="DejaVuSans-6c" d="M 603 4863 
L 1178 4863 
L 1178 0 
L 603 0 
L 603 4863 
z
" transform="scale(0.015625)"/>
        <path id="DejaVuSans-65" d="M 3597 1894 
L 3597 1613 
L 953 1613 
Q 991 1019 1311 708 
Q 1631 397 2203 397 
Q 2534 397 2845 478 
Q 3156 559 3463 722 
L 3463 178 
Q 3153 47 2828 -22 
Q 2503 -91 2169 -91 
Q 1331 -91 842 396 
Q 353 884 353 1716 
Q 353 2575 817 3079 
Q 1281 3584 2069 3584 
Q 2775 3584 3186 3129 
Q 3597 2675 3597 1894 
z
M 3022 2063 
Q 3016 2534 2758 2815 
Q 2500 3097 2075 3097 
Q 1594 3097 1305 2825 
Q 1016 2553 972 2059 
L 3022 2063 
z
" transform="scale(0.015625)"/>
       </defs>
       <use xlink:href="#DejaVuSans-4d"/>
       <use xlink:href="#DejaVuSans-61" x="86.279297"/>
       <use xlink:href="#DejaVuSans-6c" x="147.558594"/>
       <use xlink:href="#DejaVuSans-65" x="175.341797"/>
      </g>
     </g>
    </g>
    <g id="xtick_2">
     <g id="line2d_3">
      <path d="M 1017 640.8 
L 1017 86.4 
" clip-path="url(#peaceaa6df4)" style="fill: none; stroke: #b0b0b0; stroke-width: 0.8; stroke-linecap: square"/>
     </g>
     <g id="line2d_4">
      <g>
       <use xlink:href="#m2a201b4d12" x="1017" y="640.8" style="stroke: #000000"/>
      </g>
     </g>
     <g id="text_2">
      <!-- Female -->
      <g transform="translate(1001.091937 655.786625) scale(0.088 -0.088)">
       <defs>
        <path id="DejaVuSans-46" d="M 628 4666 
L 3309 4666 
L 3309 4134 
L 1259 4134 
L 1259 2759 
L 3109 2759 
L 3109 2228 
L 1259 2228 
L 1259 0 
L 628 0 
L 628 4666 
z
" transform="scale(0.015625)"/>
        <path id="DejaVuSans-6d" d="M 3328 2828 
Q 3544 3216 3844 3400 
Q 4144 3584 4550 3584 
Q 5097 3584 5394 3201 
Q 5691 2819 5691 2113 
L 5691 0 
L 5113 0 
L 5113 2094 
Q 5113 2597 4934 2840 
Q 4756 3084 4391 3084 
Q 3944 3084 3684 2787 
Q 3425 2491 3425 1978 
L 3425 0 
L 2847 0 
L 2847 2094 
Q 2847 2600 2669 2842 
Q 2491 3084 2119 3084 
Q 1678 3084 1418 2786 
Q 1159 2488 1159 1978 
L 1159 0 
L 581 0 
L 581 3500 
L 1159 3500 
L 1159 2956 
Q 1356 3278 1631 3431 
Q 1906 3584 2284 3584 
Q 2666 3584 2933 3390 
Q 3200 3197 3328 2828 
z
" transform="scale(0.015625)"/>
       </defs>
       <use xlink:href="#DejaVuSans-46"/>
       <use xlink:href="#DejaVuSans-65" x="52.019531"/>
       <use xlink:href="#DejaVuSans-6d" x="113.542969"/>
       <use xlink:href="#DejaVuSans-61" x="210.955078"/>
       <use xlink:href="#DejaVuSans-6c" x="272.234375"/>
       <use xlink:href="#DejaVuSans-65" x="300.017578"/>
      </g>
     </g>
    </g>
    <g id="text_3">
     <!-- sex -->
     <g transform="translate(729.789 668.91125) scale(0.096 -0.096)">
      <defs>
       <path id="DejaVuSans-73" d="M 2834 3397 
L 2834 2853 
Q 2591 2978 2328 3040 
Q 2066 3103 1784 3103 
Q 1356 3103 1142 2972 
Q 928 2841 928 2578 
Q 928 2378 1081 2264 
Q 1234 2150 1697 2047 
L 1894 2003 
Q 2506 1872 2764 1633 
Q 3022 1394 3022 966 
Q 3022 478 2636 193 
Q 2250 -91 1575 -91 
Q 1294 -91 989 -36 
Q 684 19 347 128 
L 347 722 
Q 666 556 975 473 
Q 1284 391 1588 391 
Q 1994 391 2212 530 
Q 2431 669 2431 922 
Q 2431 1156 2273 1281 
Q 2116 1406 1581 1522 
L 1381 1569 
Q 847 1681 609 1914 
Q 372 2147 372 2553 
Q 372 3047 722 3315 
Q 1072 3584 1716 3584 
Q 2034 3584 2315 3537 
Q 2597 3491 2834 3397 
z
" transform="scale(0.015625)"/>
       <path id="DejaVuSans-78" d="M 3513 3500 
L 2247 1797 
L 3578 0 
L 2900 0 
L 1881 1375 
L 863 0 
L 184 0 
L 1544 1831 
L 300 3500 
L 978 3500 
L 1906 2253 
L 2834 3500 
L 3513 3500 
z
" transform="scale(0.015625)"/>
      </defs>
      <use xlink:href="#DejaVuSans-73"/>
      <use xlink:href="#DejaVuSans-65" x="52.099609"/>
      <use xlink:href="#DejaVuSans-78" x="111.873047"/>
     </g>
    </g>
   </g>
   <g id="matplotlib.axis_2">
    <g id="ytick_1">
     <g id="line2d_5">
      <path d="M 180 542.43871 
L 1296 542.43871 
" clip-path="url(#peaceaa6df4)" style="fill: none; stroke: #b0b0b0; stroke-width: 0.8; stroke-linecap: square"/>
     </g>
     <g id="line2d_6">
      <defs>
       <path id="m808e5bf74a" d="M 0 0 
L -4.8 0 
" style="stroke: #000000"/>
      </defs>
      <g>
       <use xlink:href="#m808e5bf74a" x="180" y="542.43871" style="stroke: #000000"/>
      </g>
     </g>
     <g id="text_4">
      <!-- 10 -->
      <g transform="translate(160.502 545.782022) scale(0.088 -0.088)">
       <defs>
        <path id="DejaVuSans-31" d="M 794 531 
L 1825 531 
L 1825 4091 
L 703 3866 
L 703 4441 
L 1819 4666 
L 2450 4666 
L 2450 531 
L 3481 531 
L 3481 0 
L 794 0 
L 794 531 
z
" transform="scale(0.015625)"/>
        <path id="DejaVuSans-30" d="M 2034 4250 
Q 1547 4250 1301 3770 
Q 1056 3291 1056 2328 
Q 1056 1369 1301 889 
Q 1547 409 2034 409 
Q 2525 409 2770 889 
Q 3016 1369 3016 2328 
Q 3016 3291 2770 3770 
Q 2525 4250 2034 4250 
z
M 2034 4750 
Q 2819 4750 3233 4129 
Q 3647 3509 3647 2328 
Q 3647 1150 3233 529 
Q 2819 -91 2034 -91 
Q 1250 -91 836 529 
Q 422 1150 422 2328 
Q 422 3509 836 4129 
Q 1250 4750 2034 4750 
z
" transform="scale(0.015625)"/>
       </defs>
       <use xlink:href="#DejaVuSans-31"/>
       <use xlink:href="#DejaVuSans-30" x="63.623047"/>
      </g>
     </g>
    </g>
    <g id="ytick_2">
     <g id="line2d_7">
      <path d="M 180 436.866862 
L 1296 436.866862 
" clip-path="url(#peaceaa6df4)" style="fill: none; stroke: #b0b0b0; stroke-width: 0.8; stroke-linecap: square"/>
     </g>
     <g id="line2d_8">
      <g>
       <use xlink:href="#m808e5bf74a" x="180" y="436.866862" style="stroke: #000000"/>
      </g>
     </g>
     <g id="text_5">
      <!-- 20 -->
      <g transform="translate(160.502 440.210175) scale(0.088 -0.088)">
       <defs>
        <path id="DejaVuSans-32" d="M 1228 531 
L 3431 531 
L 3431 0 
L 469 0 
L 469 531 
Q 828 903 1448 1529 
Q 2069 2156 2228 2338 
Q 2531 2678 2651 2914 
Q 2772 3150 2772 3378 
Q 2772 3750 2511 3984 
Q 2250 4219 1831 4219 
Q 1534 4219 1204 4116 
Q 875 4013 500 3803 
L 500 4441 
Q 881 4594 1212 4672 
Q 1544 4750 1819 4750 
Q 2544 4750 2975 4387 
Q 3406 4025 3406 3419 
Q 3406 3131 3298 2873 
Q 3191 2616 2906 2266 
Q 2828 2175 2409 1742 
Q 1991 1309 1228 531 
z
" transform="scale(0.015625)"/>
       </defs>
       <use xlink:href="#DejaVuSans-32"/>
       <use xlink:href="#DejaVuSans-30" x="63.623047"/>
      </g>
     </g>
    </g>
    <g id="ytick_3">
     <g id="line2d_9">
      <path d="M 180 331.295015 
L 1296 331.295015 
" clip-path="url(#peaceaa6df4)" style="fill: none; stroke: #b0b0b0; stroke-width: 0.8; stroke-linecap: square"/>
     </g>
     <g id="line2d_10">
      <g>
       <use xlink:href="#m808e5bf74a" x="180" y="331.295015" style="stroke: #000000"/>
      </g>
     </g>
     <g id="text_6">
      <!-- 30 -->
      <g transform="translate(160.502 334.638327) scale(0.088 -0.088)">
       <defs>
        <path id="DejaVuSans-33" d="M 2597 2516 
Q 3050 2419 3304 2112 
Q 3559 1806 3559 1356 
Q 3559 666 3084 287 
Q 2609 -91 1734 -91 
Q 1441 -91 1130 -33 
Q 819 25 488 141 
L 488 750 
Q 750 597 1062 519 
Q 1375 441 1716 441 
Q 2309 441 2620 675 
Q 2931 909 2931 1356 
Q 2931 1769 2642 2001 
Q 2353 2234 1838 2234 
L 1294 2234 
L 1294 2753 
L 1863 2753 
Q 2328 2753 2575 2939 
Q 2822 3125 2822 3475 
Q 2822 3834 2567 4026 
Q 2313 4219 1838 4219 
Q 1578 4219 1281 4162 
Q 984 4106 628 3988 
L 628 4550 
Q 988 4650 1302 4700 
Q 1616 4750 1894 4750 
Q 2613 4750 3031 4423 
Q 3450 4097 3450 3541 
Q 3450 3153 3228 2886 
Q 3006 2619 2597 2516 
z
" transform="scale(0.015625)"/>
       </defs>
       <use xlink:href="#DejaVuSans-33"/>
       <use xlink:href="#DejaVuSans-30" x="63.623047"/>
      </g>
     </g>
    </g>
    <g id="ytick_4">
     <g id="line2d_11">
      <path d="M 180 225.723167 
L 1296 225.723167 
" clip-path="url(#peaceaa6df4)" style="fill: none; stroke: #b0b0b0; stroke-width: 0.8; stroke-linecap: square"/>
     </g>
     <g id="line2d_12">
      <g>
       <use xlink:href="#m808e5bf74a" x="180" y="225.723167" style="stroke: #000000"/>
      </g>
     </g>
     <g id="text_7">
      <!-- 40 -->
      <g transform="translate(160.502 229.06648) scale(0.088 -0.088)">
       <defs>
        <path id="DejaVuSans-34" d="M 2419 4116 
L 825 1625 
L 2419 1625 
L 2419 4116 
z
M 2253 4666 
L 3047 4666 
L 3047 1625 
L 3713 1625 
L 3713 1100 
L 3047 1100 
L 3047 0 
L 2419 0 
L 2419 1100 
L 313 1100 
L 313 1709 
L 2253 4666 
z
" transform="scale(0.015625)"/>
       </defs>
       <use xlink:href="#DejaVuSans-34"/>
       <use xlink:href="#DejaVuSans-30" x="63.623047"/>
      </g>
     </g>
    </g>
    <g id="ytick_5">
     <g id="line2d_13">
      <path d="M 180 120.15132 
L 1296 120.15132 
" clip-path="url(#peaceaa6df4)" style="fill: none; stroke: #b0b0b0; stroke-width: 0.8; stroke-linecap: square"/>
     </g>
     <g id="line2d_14">
      <g>
       <use xlink:href="#m808e5bf74a" x="180" y="120.15132" style="stroke: #000000"/>
      </g>
     </g>
     <g id="text_8">
      <!-- 50 -->
      <g transform="translate(160.502 123.494632) scale(0.088 -0.088)">
       <defs>
        <path id="DejaVuSans-35" d="M 691 4666 
L 3169 4666 
L 3169 4134 
L 1269 4134 
L 1269 2991 
Q 1406 3038 1543 3061 
Q 1681 3084 1819 3084 
Q 2600 3084 3056 2656 
Q 3513 2228 3513 1497 
Q 3513 744 3044 326 
Q 2575 -91 1722 -91 
Q 1428 -91 1123 -41 
Q 819 9 494 109 
L 494 744 
Q 775 591 1075 516 
Q 1375 441 1709 441 
Q 2250 441 2565 725 
Q 2881 1009 2881 1497 
Q 2881 1984 2565 2268 
Q 2250 2553 1709 2553 
Q 1456 2553 1204 2497 
Q 953 2441 691 2322 
L 691 4666 
z
" transform="scale(0.015625)"/>
       </defs>
       <use xlink:href="#DejaVuSans-35"/>
       <use xlink:href="#DejaVuSans-30" x="63.623047"/>
      </g>
     </g>
    </g>
    <g id="text_9">
     <!-- total_bill -->
     <g transform="translate(154.2385 384.02325) rotate(-90) scale(0.096 -0.096)">
      <defs>
       <path id="DejaVuSans-74" d="M 1172 4494 
L 1172 3500 
L 2356 3500 
L 2356 3053 
L 1172 3053 
L 1172 1153 
Q 1172 725 1289 603 
Q 1406 481 1766 481 
L 2356 481 
L 2356 0 
L 1766 0 
Q 1100 0 847 248 
Q 594 497 594 1153 
L 594 3053 
L 172 3053 
L 172 3500 
L 594 3500 
L 594 4494 
L 1172 4494 
z
" transform="scale(0.015625)"/>
       <path id="DejaVuSans-6f" d="M 1959 3097 
Q 1497 3097 1228 2736 
Q 959 2375 959 1747 
Q 959 1119 1226 758 
Q 1494 397 1959 397 
Q 2419 397 2687 759 
Q 2956 1122 2956 1747 
Q 2956 2369 2687 2733 
Q 2419 3097 1959 3097 
z
M 1959 3584 
Q 2709 3584 3137 3096 
Q 3566 2609 3566 1747 
Q 3566 888 3137 398 
Q 2709 -91 1959 -91 
Q 1206 -91 779 398 
Q 353 888 353 1747 
Q 353 2609 779 3096 
Q 1206 3584 1959 3584 
z
" transform="scale(0.015625)"/>
       <path id="DejaVuSans-5f" d="M 3263 -1063 
L 3263 -1509 
L -63 -1509 
L -63 -1063 
L 3263 -1063 
z
" transform="scale(0.015625)"/>
       <path id="DejaVuSans-62" d="M 3116 1747 
Q 3116 2381 2855 2742 
Q 2594 3103 2138 3103 
Q 1681 3103 1420 2742 
Q 1159 2381 1159 1747 
Q 1159 1113 1420 752 
Q 1681 391 2138 391 
Q 2594 391 2855 752 
Q 3116 1113 3116 1747 
z
M 1159 2969 
Q 1341 3281 1617 3432 
Q 1894 3584 2278 3584 
Q 2916 3584 3314 3078 
Q 3713 2572 3713 1747 
Q 3713 922 3314 415 
Q 2916 -91 2278 -91 
Q 1894 -91 1617 61 
Q 1341 213 1159 525 
L 1159 0 
L 581 0 
L 581 4863 
L 1159 4863 
L 1159 2969 
z
" transform="scale(0.015625)"/>
       <path id="DejaVuSans-69" d="M 603 3500 
L 1178 3500 
L 1178 0 
L 603 0 
L 603 3500 
z
M 603 4863 
L 1178 4863 
L 1178 4134 
L 603 4134 
L 603 4863 
z
" transform="scale(0.015625)"/>
      </defs>
      <use xlink:href="#DejaVuSans-74"/>
      <use xlink:href="#DejaVuSans-6f" x="39.208984"/>
      <use xlink:href="#DejaVuSans-74" x="100.390625"/>
      <use xlink:href="#DejaVuSans-61" x="139.599609"/>
      <use xlink:href="#DejaVuSans-6c" x="200.878906"/>
      <use xlink:href="#DejaVuSans-5f" x="228.662109"/>
      <use xlink:href="#DejaVuSans-62" x="278.662109"/>
      <use xlink:href="#DejaVuSans-69" x="342.138672"/>
      <use xlink:href="#DejaVuSans-6c" x="369.921875"/>
      <use xlink:href="#DejaVuSans-6c" x="397.705078"/>
     </g>
    </g>
   </g>
   <g id="line2d_15">
    <path d="M 291.6 503.403519 
L 291.6 568.7261 
" clip-path="url(#peaceaa6df4)" style="fill: none; stroke: #2b2b2b; stroke-width: 1.2; stroke-linecap: square"/>
   </g>
   <g id="line2d_16">
    <path d="M 291.6 411.951906 
L 291.6 285.89912 
" clip-path="url(#peaceaa6df4)" style="fill: none; stroke: #2b2b2b; stroke-width: 1.2; stroke-linecap: square"/>
   </g>
   <g id="line2d_17">
    <path d="M 264.258 568.7261 
L 318.942 568.7261 
" clip-path="url(#peaceaa6df4)" style="fill: none; stroke: #2b2b2b; stroke-width: 1.2; stroke-linecap: square"/>
   </g>
   <g id="line2d_18">
    <path d="M 264.258 285.89912 
L 318.942 285.89912 
" clip-path="url(#peaceaa6df4)" style="fill: none; stroke: #2b2b2b; stroke-width: 1.2; stroke-linecap: square"/>
   </g>
   <g id="line2d_19">
    <defs>
     <path id="mc5f67c274f" d="M 0 3.535534 
L 2.12132 0 
L 0 -3.535534 
L -2.12132 0 
z
" style="stroke: #2b2b2b; stroke-linejoin: miter"/>
    </defs>
    <g clip-path="url(#peaceaa6df4)">
     <use xlink:href="#mc5f67c274f" x="291.6" y="213.160117" style="fill: #2b2b2b; stroke: #2b2b2b; stroke-linejoin: miter"/>
    </g>
   </g>
   <g id="line2d_20">
    <path d="M 403.2 518.843402 
L 403.2 557.429912 
" clip-path="url(#peaceaa6df4)" style="fill: none; stroke: #2b2b2b; stroke-width: 1.2; stroke-linecap: square"/>
   </g>
   <g id="line2d_21">
    <path d="M 403.2 372.652786 
L 403.2 223.928446 
" clip-path="url(#peaceaa6df4)" style="fill: none; stroke: #2b2b2b; stroke-width: 1.2; stroke-linecap: square"/>
   </g>
   <g id="line2d_22">
    <path d="M 375.858 557.429912 
L 430.542 557.429912 
" clip-path="url(#peaceaa6df4)" style="fill: none; stroke: #2b2b2b; stroke-width: 1.2; stroke-linecap: square"/>
   </g>
   <g id="line2d_23">
    <path d="M 375.858 223.928446 
L 430.542 223.928446 
" clip-path="url(#peaceaa6df4)" style="fill: none; stroke: #2b2b2b; stroke-width: 1.2; stroke-linecap: square"/>
   </g>
   <g id="line2d_24"/>
   <g id="line2d_25">
    <path d="M 514.8 501.212903 
L 514.8 566.297947 
" clip-path="url(#peaceaa6df4)" style="fill: none; stroke: #2b2b2b; stroke-width: 1.2; stroke-linecap: square"/>
   </g>
   <g id="line2d_26">
    <path d="M 514.8 392.896188 
L 514.8 231.846334 
" clip-path="url(#peaceaa6df4)" style="fill: none; stroke: #2b2b2b; stroke-width: 1.2; stroke-linecap: square"/>
   </g>
   <g id="line2d_27">
    <path d="M 487.458 566.297947 
L 542.142 566.297947 
" clip-path="url(#peaceaa6df4)" style="fill: none; stroke: #2b2b2b; stroke-width: 1.2; stroke-linecap: square"/>
   </g>
   <g id="line2d_28">
    <path d="M 487.458 231.846334 
L 542.142 231.846334 
" clip-path="url(#peaceaa6df4)" style="fill: none; stroke: #2b2b2b; stroke-width: 1.2; stroke-linecap: square"/>
   </g>
   <g id="line2d_29">
    <g clip-path="url(#peaceaa6df4)">
     <use xlink:href="#mc5f67c274f" x="514.8" y="138.415249" style="fill: #2b2b2b; stroke: #2b2b2b; stroke-linejoin: miter"/>
     <use xlink:href="#mc5f67c274f" x="514.8" y="111.6" style="fill: #2b2b2b; stroke: #2b2b2b; stroke-linejoin: miter"/>
     <use xlink:href="#mc5f67c274f" x="514.8" y="137.781818" style="fill: #2b2b2b; stroke: #2b2b2b; stroke-linejoin: miter"/>
    </g>
   </g>
   <g id="line2d_30">
    <path d="M 626.4 488.227566 
L 626.4 571.470968 
" clip-path="url(#peaceaa6df4)" style="fill: none; stroke: #2b2b2b; stroke-width: 1.2; stroke-linecap: square"/>
   </g>
   <g id="line2d_31">
    <path d="M 626.4 367.717302 
L 626.4 219.916716 
" clip-path="url(#peaceaa6df4)" style="fill: none; stroke: #2b2b2b; stroke-width: 1.2; stroke-linecap: square"/>
   </g>
   <g id="line2d_32">
    <path d="M 599.058 571.470968 
L 653.742 571.470968 
" clip-path="url(#peaceaa6df4)" style="fill: none; stroke: #2b2b2b; stroke-width: 1.2; stroke-linecap: square"/>
   </g>
   <g id="line2d_33">
    <path d="M 599.058 219.916716 
L 653.742 219.916716 
" clip-path="url(#peaceaa6df4)" style="fill: none; stroke: #2b2b2b; stroke-width: 1.2; stroke-linecap: square"/>
   </g>
   <g id="line2d_34">
    <g clip-path="url(#peaceaa6df4)">
     <use xlink:href="#mc5f67c274f" x="626.4" y="139.470968" style="fill: #2b2b2b; stroke: #2b2b2b; stroke-linejoin: miter"/>
     <use xlink:href="#mc5f67c274f" x="626.4" y="169.242229" style="fill: #2b2b2b; stroke: #2b2b2b; stroke-linejoin: miter"/>
    </g>
   </g>
   <g id="line2d_35">
    <path d="M 849.6 519.608798 
L 849.6 559.858065 
" clip-path="url(#peaceaa6df4)" style="fill: none; stroke: #2b2b2b; stroke-width: 1.2; stroke-linecap: square"/>
   </g>
   <g id="line2d_36">
    <path d="M 849.6 450.855132 
L 849.6 362.43871 
" clip-path="url(#peaceaa6df4)" style="fill: none; stroke: #2b2b2b; stroke-width: 1.2; stroke-linecap: square"/>
   </g>
   <g id="line2d_37">
    <path d="M 822.258 559.858065 
L 876.942 559.858065 
" clip-path="url(#peaceaa6df4)" style="fill: none; stroke: #2b2b2b; stroke-width: 1.2; stroke-linecap: square"/>
   </g>
   <g id="line2d_38">
    <path d="M 822.258 362.43871 
L 876.942 362.43871 
" clip-path="url(#peaceaa6df4)" style="fill: none; stroke: #2b2b2b; stroke-width: 1.2; stroke-linecap: square"/>
   </g>
   <g id="line2d_39">
    <g clip-path="url(#peaceaa6df4)">
     <use xlink:href="#mc5f67c274f" x="849.6" y="280.303812" style="fill: #2b2b2b; stroke: #2b2b2b; stroke-linejoin: miter"/>
     <use xlink:href="#mc5f67c274f" x="849.6" y="333.406452" style="fill: #2b2b2b; stroke: #2b2b2b; stroke-linejoin: miter"/>
     <use xlink:href="#mc5f67c274f" x="849.6" y="192.890323" style="fill: #2b2b2b; stroke: #2b2b2b; stroke-linejoin: miter"/>
    </g>
   </g>
   <g id="line2d_40">
    <path d="M 961.2 528.18651 
L 961.2 587.306745 
" clip-path="url(#peaceaa6df4)" style="fill: none; stroke: #2b2b2b; stroke-width: 1.2; stroke-linecap: square"/>
   </g>
   <g id="line2d_41">
    <path d="M 961.2 476.245161 
L 961.2 407.834604 
" clip-path="url(#peaceaa6df4)" style="fill: none; stroke: #2b2b2b; stroke-width: 1.2; stroke-linecap: square"/>
   </g>
   <g id="line2d_42">
    <path d="M 933.858 587.306745 
L 988.542 587.306745 
" clip-path="url(#peaceaa6df4)" style="fill: none; stroke: #2b2b2b; stroke-width: 1.2; stroke-linecap: square"/>
   </g>
   <g id="line2d_43">
    <path d="M 933.858 407.834604 
L 988.542 407.834604 
" clip-path="url(#peaceaa6df4)" style="fill: none; stroke: #2b2b2b; stroke-width: 1.2; stroke-linecap: square"/>
   </g>
   <g id="line2d_44"/>
   <g id="line2d_45">
    <path d="M 1072.8 499.682111 
L 1072.8 615.6 
" clip-path="url(#peaceaa6df4)" style="fill: none; stroke: #2b2b2b; stroke-width: 1.2; stroke-linecap: square"/>
   </g>
   <g id="line2d_46">
    <path d="M 1072.8 378.142522 
L 1072.8 269.746628 
" clip-path="url(#peaceaa6df4)" style="fill: none; stroke: #2b2b2b; stroke-width: 1.2; stroke-linecap: square"/>
   </g>
   <g id="line2d_47">
    <path d="M 1045.458 615.6 
L 1100.142 615.6 
" clip-path="url(#peaceaa6df4)" style="fill: none; stroke: #2b2b2b; stroke-width: 1.2; stroke-linecap: square"/>
   </g>
   <g id="line2d_48">
    <path d="M 1045.458 269.746628 
L 1100.142 269.746628 
" clip-path="url(#peaceaa6df4)" style="fill: none; stroke: #2b2b2b; stroke-width: 1.2; stroke-linecap: square"/>
   </g>
   <g id="line2d_49">
    <g clip-path="url(#peaceaa6df4)">
     <use xlink:href="#mc5f67c274f" x="1072.8" y="180.327273" style="fill: #2b2b2b; stroke: #2b2b2b; stroke-linejoin: miter"/>
    </g>
   </g>
   <g id="line2d_50">
    <path d="M 1184.4 487.805279 
L 1184.4 546.661584 
" clip-path="url(#peaceaa6df4)" style="fill: none; stroke: #2b2b2b; stroke-width: 1.2; stroke-linecap: square"/>
   </g>
   <g id="line2d_51">
    <path d="M 1184.4 385.16305 
L 1184.4 275.764223 
" clip-path="url(#peaceaa6df4)" style="fill: none; stroke: #2b2b2b; stroke-width: 1.2; stroke-linecap: square"/>
   </g>
   <g id="line2d_52">
    <path d="M 1157.058 546.661584 
L 1211.742 546.661584 
" clip-path="url(#peaceaa6df4)" style="fill: none; stroke: #2b2b2b; stroke-width: 1.2; stroke-linecap: square"/>
   </g>
   <g id="line2d_53">
    <path d="M 1157.058 275.764223 
L 1211.742 275.764223 
" clip-path="url(#peaceaa6df4)" style="fill: none; stroke: #2b2b2b; stroke-width: 1.2; stroke-linecap: square"/>
   </g>
   <g id="line2d_54"/>
   <g id="line2d_55">
    <path d="M 236.916 468.802346 
L 346.284 468.802346 
" clip-path="url(#peaceaa6df4)" style="fill: none; stroke: #2b2b2b; stroke-width: 1.2"/>
   </g>
   <g id="line2d_56">
    <path d="M 348.516 466.268622 
L 457.884 466.268622 
" clip-path="url(#peaceaa6df4)" style="fill: none; stroke: #2b2b2b; stroke-width: 1.2"/>
   </g>
   <g id="line2d_57">
    <path d="M 460.116 455.447507 
L 569.484 455.447507 
" clip-path="url(#peaceaa6df4)" style="fill: none; stroke: #2b2b2b; stroke-width: 1.2"/>
   </g>
   <g id="line2d_58">
    <path d="M 571.716 429.212903 
L 681.084 429.212903 
" clip-path="url(#peaceaa6df4)" style="fill: none; stroke: #2b2b2b; stroke-width: 1.2"/>
   </g>
   <g id="line2d_59">
    <path d="M 794.916 502.479765 
L 904.284 502.479765 
" clip-path="url(#peaceaa6df4)" style="fill: none; stroke: #2b2b2b; stroke-width: 1.2"/>
   </g>
   <g id="line2d_60">
    <path d="M 906.516 485.641056 
L 1015.884 485.641056 
" clip-path="url(#peaceaa6df4)" style="fill: none; stroke: #2b2b2b; stroke-width: 1.2"/>
   </g>
   <g id="line2d_61">
    <path d="M 1018.116 454.180645 
L 1127.484 454.180645 
" clip-path="url(#peaceaa6df4)" style="fill: none; stroke: #2b2b2b; stroke-width: 1.2"/>
   </g>
   <g id="line2d_62">
    <path d="M 1129.716 464.209971 
L 1239.084 464.209971 
" clip-path="url(#peaceaa6df4)" style="fill: none; stroke: #2b2b2b; stroke-width: 1.2"/>
   </g>
   <g id="patch_15">
    <path d="M 180 640.8 
L 180 86.4 
" style="fill: none; stroke: #000000; stroke-linejoin: miter; stroke-linecap: square"/>
   </g>
   <g id="patch_16">
    <path d="M 180 640.8 
L 1296 640.8 
" style="fill: none; stroke: #000000; stroke-linejoin: miter; stroke-linecap: square"/>
   </g>
   <g id="legend_1">
    <g id="patch_17">
     <path d="M 1241.5335 158.798 
L 1289.84 158.798 
Q 1291.6 158.798 1291.6 157.038 
L 1291.6 92.56 
Q 1291.6 90.8 1289.84 90.8 
L 1241.5335 90.8 
Q 1239.7735 90.8 1239.7735 92.56 
L 1239.7735 157.038 
Q 1239.7735 158.798 1241.5335 158.798 
z
" style="fill: #ffffff; opacity: 0.8; stroke: #cccccc; stroke-width: 0.8; stroke-linejoin: miter"/>
    </g>
    <g id="text_10">
     <!-- day -->
     <g transform="translate(1256.857 101.6145) scale(0.096 -0.096)">
      <defs>
       <path id="DejaVuSans-64" d="M 2906 2969 
L 2906 4863 
L 3481 4863 
L 3481 0 
L 2906 0 
L 2906 525 
Q 2725 213 2448 61 
Q 2172 -91 1784 -91 
Q 1150 -91 751 415 
Q 353 922 353 1747 
Q 353 2572 751 3078 
Q 1150 3584 1784 3584 
Q 2172 3584 2448 3432 
Q 2725 3281 2906 2969 
z
M 947 1747 
Q 947 1113 1208 752 
Q 1469 391 1925 391 
Q 2381 391 2643 752 
Q 2906 1113 2906 1747 
Q 2906 2381 2643 2742 
Q 2381 3103 1925 3103 
Q 1469 3103 1208 2742 
Q 947 2381 947 1747 
z
" transform="scale(0.015625)"/>
       <path id="DejaVuSans-79" d="M 2059 -325 
Q 1816 -950 1584 -1140 
Q 1353 -1331 966 -1331 
L 506 -1331 
L 506 -850 
L 844 -850 
Q 1081 -850 1212 -737 
Q 1344 -625 1503 -206 
L 1606 56 
L 191 3500 
L 800 3500 
L 1894 763 
L 2988 3500 
L 3597 3500 
L 2059 -325 
z
" transform="scale(0.015625)"/>
      </defs>
      <use xlink:href="#DejaVuSans-64"/>
      <use xlink:href="#DejaVuSans-61" x="63.476562"/>
      <use xlink:href="#DejaVuSans-79" x="124.755859"/>
     </g>
    </g>
    <g id="patch_18">
     <path d="M 1243.2935 114.697625 
L 1260.8935 114.697625 
L 1260.8935 108.537625 
L 1243.2935 108.537625 
z
" style="fill: #7e1212; stroke: #2b2b2b; stroke-width: 0.6; stroke-linejoin: miter"/>
    </g>
    <g id="text_11">
     <!-- Thur -->
     <g transform="translate(1267.9335 114.697625) scale(0.088 -0.088)">
      <defs>
       <path id="DejaVuSans-54" d="M -19 4666 
L 3928 4666 
L 3928 4134 
L 2272 4134 
L 2272 0 
L 1638 0 
L 1638 4134 
L -19 4134 
L -19 4666 
z
" transform="scale(0.015625)"/>
       <path id="DejaVuSans-68" d="M 3513 2113 
L 3513 0 
L 2938 0 
L 2938 2094 
Q 2938 2591 2744 2837 
Q 2550 3084 2163 3084 
Q 1697 3084 1428 2787 
Q 1159 2491 1159 1978 
L 1159 0 
L 581 0 
L 581 4863 
L 1159 4863 
L 1159 2956 
Q 1366 3272 1645 3428 
Q 1925 3584 2291 3584 
Q 2894 3584 3203 3211 
Q 3513 2838 3513 2113 
z
" transform="scale(0.015625)"/>
       <path id="DejaVuSans-75" d="M 544 1381 
L 544 3500 
L 1119 3500 
L 1119 1403 
Q 1119 906 1312 657 
Q 1506 409 1894 409 
Q 2359 409 2629 706 
Q 2900 1003 2900 1516 
L 2900 3500 
L 3475 3500 
L 3475 0 
L 2900 0 
L 2900 538 
Q 2691 219 2414 64 
Q 2138 -91 1772 -91 
Q 1169 -91 856 284 
Q 544 659 544 1381 
z
M 1991 3584 
L 1991 3584 
z
" transform="scale(0.015625)"/>
       <path id="DejaVuSans-72" d="M 2631 2963 
Q 2534 3019 2420 3045 
Q 2306 3072 2169 3072 
Q 1681 3072 1420 2755 
Q 1159 2438 1159 1844 
L 1159 0 
L 581 0 
L 581 3500 
L 1159 3500 
L 1159 2956 
Q 1341 3275 1631 3429 
Q 1922 3584 2338 3584 
Q 2397 3584 2469 3576 
Q 2541 3569 2628 3553 
L 2631 2963 
z
" transform="scale(0.015625)"/>
      </defs>
      <use xlink:href="#DejaVuSans-54"/>
      <use xlink:href="#DejaVuSans-68" x="61.083984"/>
      <use xlink:href="#DejaVuSans-75" x="124.462891"/>
      <use xlink:href="#DejaVuSans-72" x="187.841797"/>
     </g>
    </g>
    <g id="patch_19">
     <path d="M 1243.2935 127.614375 
L 1260.8935 127.614375 
L 1260.8935 121.454375 
L 1243.2935 121.454375 
z
" style="fill: #df3120; stroke: #2b2b2b; stroke-width: 0.6; stroke-linejoin: miter"/>
    </g>
    <g id="text_12">
     <!-- Fri -->
     <g transform="translate(1267.9335 127.614375) scale(0.088 -0.088)">
      <use xlink:href="#DejaVuSans-46"/>
      <use xlink:href="#DejaVuSans-72" x="50.269531"/>
      <use xlink:href="#DejaVuSans-69" x="91.382812"/>
     </g>
    </g>
    <g id="patch_20">
     <path d="M 1243.2935 140.531125 
L 1260.8935 140.531125 
L 1260.8935 134.371125 
L 1243.2935 134.371125 
z
" style="fill: #df9620; stroke: #2b2b2b; stroke-width: 0.6; stroke-linejoin: miter"/>
    </g>
    <g id="text_13">
     <!-- Sat -->
     <g transform="translate(1267.9335 140.531125) scale(0.088 -0.088)">
      <defs>
       <path id="DejaVuSans-53" d="M 3425 4513 
L 3425 3897 
Q 3066 4069 2747 4153 
Q 2428 4238 2131 4238 
Q 1616 4238 1336 4038 
Q 1056 3838 1056 3469 
Q 1056 3159 1242 3001 
Q 1428 2844 1947 2747 
L 2328 2669 
Q 3034 2534 3370 2195 
Q 3706 1856 3706 1288 
Q 3706 609 3251 259 
Q 2797 -91 1919 -91 
Q 1588 -91 1214 -16 
Q 841 59 441 206 
L 441 856 
Q 825 641 1194 531 
Q 1563 422 1919 422 
Q 2459 422 2753 634 
Q 3047 847 3047 1241 
Q 3047 1584 2836 1778 
Q 2625 1972 2144 2069 
L 1759 2144 
Q 1053 2284 737 2584 
Q 422 2884 422 3419 
Q 422 4038 858 4394 
Q 1294 4750 2059 4750 
Q 2388 4750 2728 4690 
Q 3069 4631 3425 4513 
z
" transform="scale(0.015625)"/>
      </defs>
      <use xlink:href="#DejaVuSans-53"/>
      <use xlink:href="#DejaVuSans-61" x="63.476562"/>
      <use xlink:href="#DejaVuSans-74" x="124.755859"/>
     </g>
    </g>
    <g id="patch_21">
     <path d="M 1243.2935 153.447875 
L 1260.8935 153.447875 
L 1260.8935 147.287875 
L 1243.2935 147.287875 
z
" style="fill: #e6e64f; stroke: #2b2b2b; stroke-width: 0.6; stroke-linejoin: miter"/>
    </g>
    <g id="text_14">
     <!-- Sun -->
     <g transform="translate(1267.9335 153.447875) scale(0.088 -0.088)">
      <defs>
       <path id="DejaVuSans-6e" d="M 3513 2113 
L 3513 0 
L 2938 0 
L 2938 2094 
Q 2938 2591 2744 2837 
Q 2550 3084 2163 3084 
Q 1697 3084 1428 2787 
Q 1159 2491 1159 1978 
L 1159 0 
L 581 0 
L 581 3500 
L 1159 3500 
L 1159 2956 
Q 1366 3272 1645 3428 
Q 1925 3584 2291 3584 
Q 2894 3584 3203 3211 
Q 3513 2838 3513 2113 
z
" transform="scale(0.015625)"/>
      </defs>
      <use xlink:href="#DejaVuSans-53"/>
      <use xlink:href="#DejaVuSans-75" x="63.476562"/>
      <use xlink:href="#DejaVuSans-6e" x="126.855469"/>
     </g>
    </g>
   </g>
  </g>
 </g>
 <defs>
  <clipPath id="peaceaa6df4">
   <rect x="180" y="86.4" width="1116" height="554.4"/>
  </clipPath>
 </defs>
</svg>
